<?xml version="1.0" encoding="UTF-8" standalone="no"?>
<!-- Created with Inkscape (http://www.inkscape.org/) -->

<svg
   width="5.6444445mm"
   height="5.6444445mm"
   viewBox="0 0 5.6444445 5.6444445"
   version="1.1"
   id="svg381"
   inkscape:version="1.2.2 (b0a8486541, 2022-12-01)"
   sodipodi:docname="favicon.svg"
   xmlns:inkscape="http://www.inkscape.org/namespaces/inkscape"
   xmlns:sodipodi="http://sodipodi.sourceforge.net/DTD/sodipodi-0.dtd"
   xmlns="http://www.w3.org/2000/svg"
   xmlns:svg="http://www.w3.org/2000/svg">
  <sodipodi:namedview
     id="namedview383"
     pagecolor="#ffffff"
     bordercolor="#666666"
     borderopacity="1.0"
     inkscape:showpageshadow="2"
     inkscape:pageopacity="0.0"
     inkscape:pagecheckerboard="0"
     inkscape:deskcolor="#d1d1d1"
     inkscape:document-units="mm"
     showgrid="false"
     inkscape:zoom="19.02887"
     inkscape:cx="11.035863"
     inkscape:cy="17.972691"
     inkscape:window-width="1920"
     inkscape:window-height="1048"
     inkscape:window-x="0"
     inkscape:window-y="32"
     inkscape:window-maximized="1"
     inkscape:current-layer="layer1" />
  <defs
     id="defs378" />
  <g
     inkscape:label="Layer 1"
     inkscape:groupmode="layer"
     id="layer1"
     transform="translate(499.61438,164.86017)">
    <g
       id="g539"
       transform="matrix(0.04654625,0,0,0.04654625,-481.28336,-169.36011)"
       style="stroke-width:21.484">
      <path
         id="path7161"
         style="fill:#2f2d3c;fill-opacity:1;stroke:none;stroke-width:5.68432px;stroke-linecap:butt;stroke-linejoin:miter;stroke-opacity:1"
         d="m -344.48468,123.0002 -10.78189,10.78203 v 8.49645 h -8.49686 l -10.78189,10.7823 v 8.49713 l 8.49754,-8.49713 40.19613,4.1e-4 h 27.26282 l -8.49577,8.49672 h -67.46072 -8.49686 l -10.78162,10.78135 v 19.27917 h 99.19009 l 22.07522,-22.07604 v -27.26391 h -7.98542 l 8.1e-4,-19.27848 z m -2.28435,10.78203 h 40.19586 l -8.49686,8.49713 -40.19586,-6.8e-4 z m 55.4439,0 v 8.49645 h -8.49686 z m 7.98584,19.27766 v 12.01696 l -15.76015,15.75975 h -83.94206 v -8.49714 l 80.42305,6.8e-4 z" />
      <path
         id="path7163"
         style="color:#000000;fill:#ec9147;fill-opacity:1;fill-rule:evenodd;stroke-width:107.42;stroke-linecap:square;-inkscape-stroke:none"
         d="m -344.48454,123.00006 -10.78203,10.78203 h 48.6934 l -8.49672,8.49727 -48.6934,-5.4e-4 -10.78203,10.78216 75.95663,4.1e-4 -8.49591,8.49686 h -75.95758 l -10.78162,10.78108 91.20535,9.5e-4 30.0601,-30.06146 h -27.26377 l 19.27889,-19.27876 z"
         sodipodi:nodetypes="ccccccccccccccc" />
    </g>
  </g>
</svg>
