<svg width="260" height="74" viewBox="0 0 260 74" fill="none" xmlns="http://www.w3.org/2000/svg">
<path d="M53.1122 0.448486L41.6704 11.9356V20.988H32.6537L21.2114 32.4757V41.5287L30.2292 32.4757H40.3658L72.8858 32.4762H101.818L92.8019 41.5287H21.2114H12.1946L0.752808 53.0153V73.5559H106.015L129.441 50.0356V20.988H120.967L120.968 0.448486H53.1122ZM213.388 5.78626C212.565 5.78626 211.857 6.06417 211.267 6.62148C210.686 7.17008 210.396 7.82787 210.396 8.59417C210.396 9.36917 210.686 10.0354 211.267 10.5927C211.857 11.1413 212.565 11.4158 213.388 11.4158C214.212 11.4158 214.915 11.1413 215.496 10.5927C216.086 10.0354 216.381 9.36917 216.381 8.59417C216.381 7.82787 216.086 7.17008 215.496 6.62148C214.915 6.06417 214.212 5.78626 213.388 5.78626ZM141.511 7.31409V34.0652H152.895C154.89 34.0652 156.568 33.7428 157.93 33.0984C159.291 32.454 160.319 31.5792 161.013 30.4733C161.715 29.3587 162.067 28.0915 162.067 26.6721C162.067 25.3572 161.789 24.2248 161.234 23.2757C160.679 22.3178 159.955 21.5737 159.062 21.0426C158.177 20.5113 157.227 20.2239 156.213 20.1804V19.9188C157.141 19.7099 157.965 19.3576 158.685 18.8612C159.413 18.3561 159.985 17.7113 160.402 16.9276C160.818 16.1352 161.026 15.2164 161.026 14.1714C161.026 12.8304 160.696 11.6462 160.037 10.6186C159.378 9.58237 158.394 8.77293 157.084 8.1895C155.774 7.60607 154.139 7.31409 152.179 7.31409H141.511ZM147.144 11.886H151.425C152.674 11.886 153.636 12.1814 154.313 12.7735C154.998 13.3657 155.341 14.1452 155.341 15.1118C155.341 15.8172 155.163 16.4225 154.807 16.9276C154.46 17.4327 153.983 17.8244 153.376 18.1031C152.778 18.373 152.092 18.5083 151.32 18.5083H147.144V11.886ZM50.6883 11.9356H93.3443L84.3275 20.9886L41.6704 20.988L50.6883 11.9356ZM109.526 11.9356V20.988H100.509L109.526 11.9356ZM228.641 13.546C226.887 13.4921 225.356 13.8927 224.247 14.4721C222.009 15.6414 220.258 17.4534 219.759 19.697L224.885 20.1148C225.075 19.453 225.466 18.9046 226.056 18.4692C226.645 18.0251 227.439 17.803 228.437 17.803C229.382 17.803 230.11 18.029 230.622 18.4819C231.142 18.9347 231.403 19.575 231.403 20.4022V20.4804C231.403 20.9071 231.243 21.2295 230.922 21.4472C230.601 21.6649 230.084 21.8301 229.373 21.9433C228.662 22.0477 227.725 22.1611 226.563 22.283C225.574 22.3788 224.629 22.5445 223.727 22.7796C222.834 23.0147 222.036 23.3631 221.333 23.8246C220.631 24.2861 220.075 24.8954 219.668 25.653C219.26 26.4106 219.056 27.3469 219.056 28.4615C219.056 29.7851 219.342 30.891 219.914 31.7792C220.496 32.6587 221.285 33.325 222.282 33.7778C223.28 34.2219 224.416 34.444 225.691 34.444C226.68 34.444 227.552 34.3132 228.307 34.052C229.061 33.782 229.707 33.4123 230.245 32.942C230.783 32.4631 231.212 31.9101 231.533 31.2832H231.689V34.0652H236.946V20.5333C236.946 19.3403 236.715 18.3167 236.256 17.4633C235.796 16.6012 235.193 15.8575 234.37 15.3475C232.371 14.1084 230.394 13.5999 228.641 13.546ZM199.35 13.7409C197.867 13.7409 196.605 14.0842 195.565 14.7721C194.524 15.4513 193.782 16.3752 193.339 17.542H193.105V14.0019H187.823V34.0652H193.365V22.4658C193.376 21.6037 193.535 20.8681 193.847 20.2585C194.168 19.6403 194.61 19.1702 195.174 18.848C195.747 18.5258 196.406 18.3646 197.152 18.3646C198.262 18.3646 199.133 18.7124 199.766 19.409C200.4 20.0969 200.712 21.0552 200.703 22.283V34.0652H206.246V21.2903C206.246 19.7316 205.959 18.3906 205.387 17.2673C204.814 16.1353 204.012 15.2644 202.98 14.6548C201.948 14.0453 200.738 13.7409 199.35 13.7409ZM252.779 13.7409C251.296 13.7409 250.033 14.0842 248.993 14.7721C247.952 15.4513 247.211 16.3752 246.769 17.542H246.534V14.0019H241.252V34.0652H246.795V22.4658C246.805 21.6037 246.963 20.8681 247.276 20.2585C247.597 19.6403 248.039 19.1702 248.603 18.848C249.175 18.5258 249.834 18.3646 250.58 18.3646C251.691 18.3646 252.563 18.7124 253.196 19.409C253.829 20.0969 254.141 21.0552 254.132 22.283V34.0652H259.675V21.2903C259.675 19.7316 259.389 18.3906 258.816 17.2673C258.244 16.1353 257.441 15.2644 256.409 14.6548C255.376 14.0453 254.167 13.7409 252.779 13.7409ZM165.042 14.0019V26.7762C165.05 28.3436 165.337 29.6897 165.901 30.813C166.473 31.9363 167.267 32.8021 168.282 33.4117C169.297 34.0212 170.471 34.3262 171.807 34.3262C173.307 34.3262 174.578 33.9693 175.619 33.2553C176.668 32.5413 177.419 31.5965 177.87 30.421H178.078V34.0652H183.399V14.0019H177.857V25.522C177.868 26.4189 177.688 27.1725 177.324 27.7821C176.968 28.3916 176.5 28.8527 175.919 29.1662C175.338 29.471 174.713 29.6243 174.045 29.6243C172.995 29.6243 172.158 29.2799 171.534 28.592C170.909 27.904 170.593 26.9678 170.584 25.7835V14.0019H165.042ZM210.604 14.0019V34.0652H216.147V14.0019H210.604ZM147.144 22.3353H151.867C152.769 22.3353 153.545 22.4965 154.196 22.8187C154.855 23.1409 155.362 23.5851 155.718 24.1511C156.074 24.7171 156.251 25.3698 156.251 26.11C156.251 27.1201 155.892 27.9301 155.172 28.5397C154.452 29.1405 153.307 29.441 151.737 29.441H147.144V22.3353ZM231.442 24.765V26.894C231.442 27.5994 231.264 28.2307 230.909 28.788C230.553 29.3453 230.063 29.7895 229.439 30.1204C228.814 30.4425 228.094 30.6038 227.279 30.6038C226.429 30.6038 225.727 30.4076 225.171 30.0158C224.625 29.6152 224.351 29.0363 224.351 28.2787C224.351 27.7562 224.486 27.3205 224.755 26.9722C225.024 26.6152 225.401 26.3322 225.886 26.1232C226.372 25.9142 226.94 25.762 227.591 25.6663C227.895 25.6227 228.233 25.5742 228.606 25.522C228.979 25.461 229.352 25.3962 229.725 25.3265C230.098 25.2482 230.432 25.1653 230.727 25.0782C231.03 24.9825 231.269 24.8782 231.442 24.765ZM118.001 32.4746V45.2776L101.276 62.0683H12.1951V53.0153L97.5412 53.0163L118.001 32.4746ZM141.511 46.426V73.1771H146.975V55.6998H147.196L154.091 73.0467H157.813L164.708 55.7654H164.929V73.1771H170.394V46.426H163.447L156.108 64.3994H155.796L148.458 46.426H141.511ZM196.757 46.426V73.1771H202.299V66.807L203.802 65.0854L209.247 73.1771H215.74L207.951 61.8046L215.362 53.1138H209L202.599 60.7287H202.299V46.426H196.757ZM219.121 46.426V73.1771H224.664V66.807L226.166 65.0849L231.612 73.1771H238.103L230.314 61.8046L237.726 53.1138H231.364L224.963 60.7287H224.664V46.426H219.121ZM183.391 52.8523C181.795 52.8523 180.389 53.0964 179.175 53.584C177.969 54.063 176.985 54.7512 176.222 55.6481C175.459 56.5363 174.947 57.5893 174.687 58.8084L179.813 59.2268C180.004 58.565 180.394 58.0165 180.984 57.5811C181.574 57.137 182.367 56.9149 183.365 56.9149C184.31 56.9149 185.039 57.141 185.551 57.5938C186.071 58.0466 186.331 58.6869 186.331 59.5142V59.5924C186.331 60.0191 186.171 60.3415 185.85 60.5592C185.529 60.7769 185.013 60.942 184.302 61.0553C183.59 61.1597 182.653 61.2731 181.491 61.395C180.502 61.4907 179.557 61.6565 178.655 61.8916C177.762 62.1267 176.964 62.475 176.261 62.9366C175.559 63.3981 175.004 64.0069 174.596 64.7644C174.188 65.522 173.985 66.4588 173.985 67.5734C173.985 68.8971 174.271 70.003 174.843 70.8912C175.424 71.7707 176.213 72.4364 177.211 72.8892C178.208 73.3333 179.345 73.5554 180.62 73.5554C181.609 73.5554 182.48 73.4252 183.235 73.1639C183.99 72.894 184.636 72.5242 185.173 72.054C185.711 71.5751 186.14 71.0221 186.461 70.3951H186.617V73.1771H191.874V59.6447C191.874 58.4517 191.644 57.4286 191.185 56.5753C190.725 55.7132 190.095 55.008 189.297 54.4594C188.508 53.9108 187.602 53.5056 186.579 53.2443C185.564 52.9831 184.501 52.8523 183.391 52.8523ZM249.955 52.8523C248.359 52.8523 246.955 53.0964 245.74 53.584C244.535 54.063 243.55 54.7512 242.786 55.6481C242.023 56.5363 241.512 57.5893 241.252 58.8084L246.377 59.2268C246.568 58.565 246.958 58.0165 247.548 57.5811C248.138 57.137 248.932 56.9149 249.929 56.9149C250.875 56.9149 251.603 57.141 252.115 57.5938C252.635 58.0466 252.896 58.6869 252.896 59.5142V59.5924C252.896 60.0191 252.736 60.3415 252.415 60.5592C252.094 60.7769 251.577 60.942 250.866 61.0553C250.155 61.1597 249.218 61.2731 248.056 61.395C247.067 61.4907 246.121 61.6565 245.219 61.8916C244.326 62.1267 243.529 62.475 242.826 62.9366C242.123 63.3981 241.568 64.0069 241.16 64.7644C240.753 65.522 240.549 66.4588 240.549 67.5734C240.549 68.8971 240.835 70.003 241.407 70.8912C241.988 71.7707 242.778 72.4364 243.775 72.8892C244.773 73.3333 245.909 73.5554 247.184 73.5554C248.173 73.5554 249.044 73.4252 249.799 73.1639C250.554 72.894 251.2 72.5242 251.738 72.054C252.276 71.5751 252.705 71.0221 253.026 70.3951H253.182V73.1771H258.438V59.6447C258.438 58.4517 258.208 57.4286 257.748 56.5753C257.289 55.7132 256.66 55.008 255.862 54.4594C255.073 53.9108 254.166 53.5056 253.143 53.2443C252.128 52.9831 251.065 52.8523 249.955 52.8523ZM186.371 63.8769V66.006C186.371 66.7113 186.193 67.3426 185.837 67.8999C185.481 68.4572 184.991 68.9014 184.367 69.2323C183.742 69.5545 183.023 69.7157 182.207 69.7157C181.357 69.7157 180.655 69.5195 180.1 69.1277C179.553 68.7271 179.28 68.1482 179.28 67.3906C179.28 66.8682 179.414 66.433 179.683 66.0847C179.952 65.7277 180.33 65.4442 180.815 65.2352C181.301 65.0262 181.869 64.8734 182.519 64.7776C182.823 64.7341 183.161 64.6861 183.534 64.6339C183.907 64.573 184.28 64.5076 184.653 64.4379C185.026 64.3595 185.359 64.2773 185.654 64.1902C185.958 64.0944 186.197 63.9901 186.371 63.8769ZM252.935 63.8769V66.006C252.935 66.7113 252.757 67.3426 252.402 67.8999C252.046 68.4572 251.555 68.9014 250.931 69.2323C250.306 69.5545 249.587 69.7157 248.772 69.7157C247.922 69.7157 247.219 69.5195 246.664 69.1277C246.117 68.7271 245.844 68.1482 245.844 67.3906C245.844 66.8682 245.978 66.433 246.247 66.0847C246.516 65.7277 246.894 65.4442 247.379 65.2352C247.865 65.0262 248.433 64.8734 249.084 64.7776C249.387 64.7341 249.726 64.6861 250.099 64.6339C250.472 64.573 250.845 64.5076 251.218 64.4379C251.591 64.3595 251.925 64.2773 252.22 64.1902C252.523 64.0944 252.761 63.9901 252.935 63.8769Z" fill="#EC9147"/>
</svg>
