<?xml version="1.0" encoding="UTF-8" standalone="no"?>
<!-- Created with Inkscape (http://www.inkscape.org/) -->

<svg
   width="243.98624mm"
   height="68.618576mm"
   viewBox="0 0 243.98624 68.618576"
   version="1.1"
   id="svg381"
   inkscape:version="1.2.2 (b0a8486541, 2022-12-01)"
   sodipodi:docname="logo.svg"
   xmlns:inkscape="http://www.inkscape.org/namespaces/inkscape"
   xmlns:sodipodi="http://sodipodi.sourceforge.net/DTD/sodipodi-0.dtd"
   xmlns="http://www.w3.org/2000/svg"
   xmlns:svg="http://www.w3.org/2000/svg">
  <sodipodi:namedview
     id="namedview383"
     pagecolor="#ffffff"
     bordercolor="#666666"
     borderopacity="1.0"
     inkscape:showpageshadow="2"
     inkscape:pageopacity="0.0"
     inkscape:pagecheckerboard="0"
     inkscape:deskcolor="#d1d1d1"
     inkscape:document-units="mm"
     showgrid="false"
     inkscape:zoom="0.2102413"
     inkscape:cx="1621.9458"
     inkscape:cy="665.90151"
     inkscape:window-width="1920"
     inkscape:window-height="1048"
     inkscape:window-x="0"
     inkscape:window-y="32"
     inkscape:window-maximized="1"
     inkscape:current-layer="layer1" />
  <defs
     id="defs378" />
  <g
     inkscape:label="Layer 1"
     inkscape:groupmode="layer"
     id="layer1"
     transform="translate(332.15838,28.016914)">
    <g
       id="g7169"
       transform="matrix(0.71638732,0,0,0.71638732,-620.05534,-76.832532)"
       style="stroke-width:1.39589">
      <g
         id="g7165"
         style="stroke-width:0.734211"
         transform="matrix(1.9012113,0,0,1.9012113,9964.9215,-2139.3948)">
        <path
           id="path7161"
           style="fill:#2f2d3c;fill-opacity:1;stroke:none;stroke-width:0.194261px;stroke-linecap:butt;stroke-linejoin:miter;stroke-opacity:1"
           d="m -4993.7511,1161.121 -7.9162,7.9163 v 6.2382 h -6.2385 l -7.9162,7.9165 v 6.2387 l 6.239,-6.2387 29.5125,3e-4 h 20.0167 l -6.2377,6.2384 h -49.5305 -6.2385 l -7.916,7.9158 v 14.155 h 72.8266 l 16.2079,-16.2085 v -20.0175 h -5.863 l 6e-4,-14.1545 z m -1.6772,7.9163 h 29.5123 l -6.2385,6.2387 -29.5123,-5e-4 z m 40.7076,0 v 6.2382 h -6.2385 z m 5.8633,14.1539 v 8.823 l -11.5713,11.571 h -61.6313 v -6.2387 l 59.0476,5e-4 z" />
        <path
           id="path7163"
           style="color:#000000;fill:#ec9147;fill-opacity:1;fill-rule:evenodd;stroke-width:3.67107;stroke-linecap:square;-inkscape-stroke:none"
           d="m -4993.751,1161.1209 -7.9163,7.9163 h 35.7513 l -6.2384,6.2388 -35.7513,-4e-4 -7.9163,7.9164 55.7683,3e-4 -6.2378,6.2385 h -55.769 l -7.916,7.9156 66.9641,7e-4 22.0705,-22.0715 h -20.0174 l 14.1548,-14.1547 z"
           sodipodi:nodetypes="ccccccccccccccc" />
      </g>
      <path
         id="path7167"
         style="font-weight:bold;font-size:31.7281px;line-height:1.25;font-family:Inter;-inkscape-font-specification:'Inter Bold';fill:#443c8e;fill-opacity:1;stroke-width:0.36933"
         d="m 681.56809,75.134898 c -1.08385,0 -2.01376,0.364777 -2.78957,1.094952 -0.7644,0.718771 -1.14675,1.579938 -1.14675,2.583927 0,1.015396 0.38235,1.888289 1.14675,2.618452 0.77581,0.718771 1.70572,1.078475 2.78957,1.078475 1.08387,0 2.0079,-0.359704 2.7723,-1.078475 0.77582,-0.730163 1.16404,-1.603056 1.16404,-2.618452 0,-1.003989 -0.38822,-1.865156 -1.16404,-2.583927 -0.7644,-0.730175 -1.68843,-1.094952 -2.7723,-1.094952 z m -94.54634,2.002309 V 112.1858 h 14.97451 c 2.62406,0 4.83185,-0.42257 6.62306,-1.26685 1.79122,-0.84426 3.14293,-1.99053 4.05563,-3.43947 0.92414,-1.46035 1.38616,-3.1206 1.38616,-4.98025 0,-1.72276 -0.36478,-3.206085 -1.09496,-4.449664 -0.73017,-1.254986 -1.68272,-2.230192 -2.85784,-2.926149 -1.16372,-0.695988 -2.4131,-1.072476 -3.74795,-1.12948 v -0.342222 c 1.22075,-0.273811 2.30492,-0.735828 3.25188,-1.386158 0.95835,-0.661706 1.71134,-1.50609 2.25897,-2.532892 0.54763,-1.038225 0.82101,-2.242298 0.82101,-3.611383 0,-1.756981 -0.43351,-3.308257 -1.3006,-4.654514 -0.86706,-1.357678 -2.16175,-2.418413 -3.88451,-3.182811 -1.72276,-0.764399 -3.87353,-1.14675 -6.45195,-1.14675 z m 7.41033,5.989652 h 5.63016 c 1.6429,0 2.90985,0.387409 3.79974,1.163229 0.90131,0.775821 1.35162,1.79711 1.35162,3.063503 0,0.924141 -0.23394,1.717353 -0.7017,2.379074 -0.45637,0.661721 -1.08359,1.17491 -1.88223,1.539991 -0.78721,0.353675 -1.68861,0.530595 -2.70401,0.530595 h -5.49358 z m 68.67023,2.430078 c -1.95095,0 -3.6104,0.450306 -4.97949,1.351618 -1.36907,0.88989 -2.34506,2.099825 -2.92692,3.628638 h -0.30768 v -4.638034 h -6.94803 V 112.1858 h 7.29025 V 96.988375 c 0.0122,-1.129495 0.2227,-2.092975 0.63341,-2.891609 0.42215,-0.810041 1.00406,-1.426333 1.74565,-1.848464 0.75298,-0.422131 1.62002,-0.633424 2.6012,-0.633424 1.46034,0 2.60662,0.45617 3.43947,1.368873 0.83289,0.901312 1.24375,2.156556 1.23231,3.765216 V 112.1858 h 7.29023 V 95.448369 c 0,-2.042199 -0.37648,-3.798906 -1.12948,-5.270668 -0.75299,-1.48317 -1.80865,-2.62436 -3.16633,-3.422995 -1.35766,-0.798619 -2.94917,-1.197769 -4.77459,-1.197769 z m 32.74958,0.958376 c -2.94359,1.532109 -5.2476,3.905753 -5.90409,6.8452 l 6.74237,0.547865 c 0.25101,-0.867076 0.76418,-1.585695 1.54,-2.156146 0.77581,-0.581858 1.81976,-0.872817 3.1318,-0.872817 1.24356,0 2.20198,0.296032 2.87511,0.889297 0.68455,0.59328 1.02746,1.432575 1.02746,2.516427 v 0.10207 c 0,0.559044 -0.2113,0.981615 -0.63343,1.266849 -0.42214,0.285217 -1.1013,0.501569 -2.03683,0.649904 -0.93555,0.136852 -2.16734,0.285309 -3.69616,0.445036 -1.30061,0.12546 -2.54413,0.342647 -3.73067,0.650694 -1.17513,0.308047 -2.22494,0.764201 -3.14907,1.368888 -0.92412,0.604672 -1.65445,1.40296 -2.19068,2.39554 -0.53622,0.99258 -0.80453,2.2193 -0.80453,3.67966 0,1.73418 0.3765,3.18311 1.12948,4.34682 0.76442,1.15231 1.8025,2.02521 3.11452,2.61847 1.31205,0.58186 2.80709,0.87282 4.4842,0.87282 1.30063,0 2.4469,-0.17106 3.43948,-0.51333 0.99258,-0.35369 1.84281,-0.83835 2.55018,-1.45444 0.70734,-0.62749 1.27248,-1.35197 1.69461,-2.17342 h 0.20487 v 3.64513 h 6.91426 V 94.456273 c 0,-1.563018 -0.30268,-2.903791 -0.90735,-4.021879 -0.60468,-1.12948 -1.39862,-2.104018 -2.4811,-2.772301 -5.25918,-3.246837 -10.39762,-2.664951 -13.31443,-1.14678 z m 37.5297,-0.958376 c -1.95095,0 -3.61117,0.450306 -4.98026,1.351618 -1.36908,0.88989 -2.34429,2.099825 -2.92615,3.628638 h -0.30768 v -4.638034 h -6.9488 V 112.1858 h 7.29102 V 96.988375 c 0.0122,-1.129495 0.22191,-2.092975 0.63264,-2.891609 0.42213,-0.810041 1.00406,-1.426333 1.74565,-1.848464 0.75299,-0.422131 1.62002,-0.633424 2.60118,-0.633424 1.46035,0 2.60741,0.45617 3.44026,1.368873 0.83289,0.901312 1.24375,2.156556 1.23231,3.765216 V 112.1858 h 7.29025 V 95.448369 c 0,-2.042199 -0.3765,-3.798906 -1.12949,-5.270668 -0.753,-1.48317 -1.80866,-2.62436 -3.16632,-3.422995 -1.35768,-0.798619 -2.94918,-1.197769 -4.77461,-1.197769 z m -115.40691,0.342222 v 16.736651 c 0.0106,2.0536 0.38789,3.81696 1.12948,5.28871 0.75299,1.47177 1.79694,2.60631 3.13179,3.40494 1.33485,0.79864 2.88026,1.19856 4.63724,1.19856 1.97376,0 3.64494,-0.46789 5.01401,-1.40342 1.38049,-0.93554 2.36742,-2.17319 2.96069,-3.71341 h 0.27393 v 4.77461 h 6.99982 V 85.899159 h -7.29023 v 15.093831 c 0.0122,1.17512 -0.22254,2.16205 -0.70172,2.96067 -0.46777,0.79863 -1.08406,1.40321 -1.84846,1.81392 -0.76441,0.39932 -1.58614,0.59968 -2.46462,0.59968 -1.38049,0 -2.48145,-0.45108 -3.30289,-1.3524 -0.82142,-0.90131 -1.23736,-2.12804 -1.24881,-3.67965 V 85.899159 Z m 59.93102,0 V 112.1858 h 7.29025 V 85.899159 Z m -83.47362,10.918098 h 6.21256 c 1.18653,0 2.20705,0.211293 3.06272,0.633424 0.86709,0.422131 1.53454,1.00405 2.00231,1.745635 0.46776,0.741584 0.70171,1.596904 0.70171,2.566654 0,1.32346 -0.47297,2.38499 -1.4199,3.1836 -0.94696,0.78723 -2.45293,1.1805 -4.51795,1.1805 h -6.04145 z m 110.88348,3.183603 v 2.78957 c 0,0.92412 -0.23394,1.75092 -0.70172,2.4811 -0.46777,0.73017 -1.11257,1.31209 -1.93402,1.74563 -0.82145,0.42213 -1.76813,0.63343 -2.84059,0.63343 -1.11807,0 -2.04212,-0.25659 -2.7723,-0.76999 -0.71877,-0.52481 -1.07846,-1.28367 -1.07846,-2.27625 0,-0.68453 0.17692,-1.25551 0.53059,-1.71188 0.35368,-0.46778 0.85007,-0.8384 1.48898,-1.11223 0.63889,-0.27381 1.38603,-0.47338 2.2417,-0.59888 0.39932,-0.057 0.84455,-0.11999 1.33514,-0.18837 0.49059,-0.0799 0.98111,-0.16544 1.4717,-0.25667 0.49059,-0.10267 0.92996,-0.21087 1.31787,-0.32496 0.39932,-0.12547 0.71292,-0.2622 0.94111,-0.4105 z m -118.29381,28.38001 v 35.0486 h 7.18819 v -22.89819 h 0.29043 l 9.07041,22.72707 h 4.89471 l 9.06963,-22.64151 h 0.29121 v 22.81263 h 7.18742 v -35.0486 h -9.13793 l -9.65204,23.5481 h -0.4113 l -9.65204,-23.5481 z m 72.67011,0 v 35.0486 h 7.29025 v -8.34596 l 1.9764,-2.25583 7.16231,10.60179 h 8.53981 l -10.24542,-14.89995 9.74937,-11.38669 h -8.36871 l -8.41973,9.97699 h -0.39403 v -18.73895 z m 29.41765,0 v 35.0486 h 7.29025 v -8.34596 l 1.97562,-2.2566 7.16309,10.60256 h 8.53904 l -10.24544,-14.89995 9.74937,-11.38669 h -8.36871 l -8.41973,9.97699 h -0.39324 v -18.73895 z m -46.99885,8.41973 c -2.09925,0 -3.94814,0.31947 -5.54539,0.95838 -1.58586,0.6275 -2.88054,1.52889 -3.88453,2.70401 -1.00398,1.16372 -1.6773,2.54394 -2.01956,4.14119 l 6.74316,0.54786 c 0.25099,-0.86707 0.76418,-1.58569 1.53999,-2.15614 0.77582,-0.58186 1.81975,-0.87282 3.13179,-0.87282 1.24358,0 2.202,0.29605 2.87513,0.8893 0.68453,0.59328 1.02667,1.43256 1.02667,2.51643 v 0.10207 c 0,0.55902 -0.2113,0.98161 -0.63343,1.26684 -0.42213,0.28522 -1.10051,0.50159 -2.03606,0.64991 -0.93553,0.13685 -2.16812,0.28532 -3.69693,0.44503 -1.30063,0.12546 -2.54414,0.34267 -3.73067,0.6507 -1.17513,0.30804 -2.22414,0.76421 -3.14828,1.36889 -0.92412,0.60467 -1.65447,1.40297 -2.19068,2.39553 -0.53623,0.9926 -0.80453,2.21932 -0.80453,3.67966 0,1.73418 0.37649,3.18313 1.12948,4.34685 0.7644,1.15231 1.80249,2.02519 3.11452,2.61845 1.31204,0.58186 2.80707,0.87282 4.4842,0.87282 1.30063,0 2.44689,-0.17105 3.43948,-0.51333 0.99256,-0.35367 1.84281,-0.83835 2.55017,-1.45445 0.70735,-0.62748 1.2717,-1.35196 1.69383,-2.17341 h 0.20564 v 3.64513 h 6.91349 v -17.72955 c 0,-1.56303 -0.30188,-2.9038 -0.90657,-4.02187 -0.60467,-1.1295 -1.43225,-2.05355 -2.48188,-2.77232 -1.03823,-0.71876 -2.23058,-1.24952 -3.57683,-1.59179 -1.33485,-0.34228 -2.73185,-0.51334 -4.19221,-0.51334 z m 87.55673,0 c -2.09925,0 -3.94733,0.31947 -5.5446,0.95838 -1.58585,0.6275 -2.88133,1.52889 -3.88532,2.70401 -1.00398,1.16372 -1.67651,2.54394 -2.01877,4.14119 l 6.74237,0.54786 c 0.25099,-0.86707 0.76418,-1.58569 1.53999,-2.15614 0.77582,-0.58186 1.81977,-0.87282 3.13179,-0.87282 1.24359,0 2.202,0.29605 2.87513,0.8893 0.68455,0.59328 1.02667,1.43256 1.02667,2.51643 v 0.10207 c 0,0.55902 -0.21051,0.98161 -0.63264,1.26684 -0.42213,0.28522 -1.1013,0.50159 -2.03685,0.64991 -0.93553,0.13685 -2.16734,0.28532 -3.69614,0.44503 -1.30063,0.12546 -2.54492,0.34267 -3.73146,0.6507 -1.17513,0.30804 -2.22415,0.76421 -3.14828,1.36889 -0.92412,0.60467 -1.65445,1.40297 -2.19068,2.39553 -0.53622,0.9926 -0.80453,2.21932 -0.80453,3.67966 0,1.73418 0.37649,3.18313 1.12948,4.34685 0.7644,1.15231 1.80249,2.02519 3.11452,2.61845 1.31204,0.58186 2.80707,0.87282 4.4842,0.87282 1.30063,0 2.44689,-0.17105 3.43948,-0.51333 0.99258,-0.35367 1.84281,-0.83835 2.55017,-1.45445 0.70735,-0.62748 1.2717,-1.35196 1.69383,-2.17341 h 0.20564 v 3.64513 h 6.91351 v -17.72955 c 0,-1.56303 -0.3019,-2.9038 -0.90659,-4.02187 -0.60467,-1.1295 -1.43224,-2.05355 -2.48188,-2.77232 -1.03821,-0.71876 -2.22979,-1.24952 -3.57604,-1.59179 -1.33485,-0.34228 -2.73264,-0.51334 -4.193,-0.51334 z m -83.63768,14.44392 v 2.78957 c 0,0.92415 -0.23394,1.75092 -0.7017,2.4811 -0.46777,0.73018 -1.11257,1.3121 -1.93402,1.74564 -0.82145,0.42214 -1.76815,0.63342 -2.84059,0.63342 -1.11809,0 -2.04214,-0.25659 -2.7723,-0.76999 -0.71876,-0.52482 -1.07848,-1.28366 -1.07848,-2.27624 0,-0.68454 0.17694,-1.25474 0.53061,-1.7111 0.35368,-0.46777 0.85007,-0.83918 1.48898,-1.11301 0.6389,-0.27381 1.38602,-0.47338 2.2417,-0.59889 0.39932,-0.0571 0.84455,-0.11999 1.33512,-0.18837 0.49059,-0.0799 0.98112,-0.16544 1.47172,-0.25666 0.49057,-0.10268 0.92917,-0.21087 1.31708,-0.32495 0.39932,-0.12546 0.71371,-0.2622 0.94188,-0.41052 z m 87.55673,0 v 2.78957 c 0,0.92415 -0.23394,1.75092 -0.7017,2.4811 -0.46777,0.73018 -1.11257,1.3121 -1.93402,1.74564 -0.82145,0.42214 -1.76815,0.63342 -2.84059,0.63342 -1.11807,0 -2.04214,-0.25659 -2.7723,-0.76999 -0.71877,-0.52482 -1.07848,-1.28366 -1.07848,-2.27624 0,-0.68454 0.17692,-1.25474 0.53061,-1.7111 0.35368,-0.46777 0.85007,-0.83918 1.48898,-1.11301 0.63889,-0.27381 1.38602,-0.47338 2.2417,-0.59889 0.39932,-0.0571 0.84454,-0.11999 1.33512,-0.18837 0.49059,-0.0799 0.98112,-0.16544 1.47172,-0.25666 0.49057,-0.10268 0.92996,-0.21087 1.31785,-0.32495 0.39932,-0.12546 0.71294,-0.2622 0.94111,-0.41052 z"
         sodipodi:nodetypes="scscscscsccsscsccccccscssccscsccsccsccccccccccsccccscssscccscssscccsssccsccccccscsssccccccccccsccccscsscccssccccccccccsscccccccccscsscscccsscscscsccccccccccccccccccccccccccccccccccccccccccccccccccscccccscssscccsssccsccccccscccssscccccscssscccsssccsccccccscccsscsscscscsccccccsscscscsccccc" />
    </g>
  </g>
</svg>
